<svg width="73" height="76" viewBox="0 0 73 76" fill="none" xmlns="http://www.w3.org/2000/svg">
<path d="M70.1358 3.11597C70.1358 2.57923 69.5204 2.16554 68.9837 2.16554C68.161 2.16554 67.2996 2.16554 66.5295 2.16554C59.1366 2.54571 52.1043 4.2565 45.4326 7.67808C37.3184 11.6699 30.4665 17.3725 25.057 24.976C21.2704 30.1084 18.5656 35.811 16.5822 41.8938C16.4019 42.274 16.5822 42.4641 16.7625 42.6542C18.3853 44.365 20.0082 46.0758 21.631 47.7865C21.8113 47.9766 21.9916 48.3568 21.9916 48.737C21.9916 49.1172 21.8113 49.4973 21.4507 49.6874C20.7355 50.0644 20.0853 49.1985 19.5289 48.612C18.9758 48.0289 18.4509 47.4755 17.8444 46.8361C16.7625 45.6956 15.8609 44.5551 14.779 43.6046C14.4184 43.2244 14.2381 42.6542 14.4184 42.0839C16.7625 34.6705 20.1885 27.8274 25.057 21.7446C29.9255 15.4717 35.8759 10.5294 42.5476 6.91772C48.6783 3.49615 55.35 1.40519 62.202 0.454747C65.087 0.0745722 67.972 -0.115515 70.8571 0.0745723C71.4595 0.0745723 71.7399 0.244312 71.9134 0.640502C72.1253 1.12412 72.1285 1.67093 72.138 2.19882C72.3546 14.2497 69.4595 25.3944 63.2838 35.811C56.9728 46.2659 48.3177 54.0594 37.4988 59.0017C35.8759 59.7621 34.0728 60.3323 32.2696 61.0927C32.0931 61.1547 31.9359 61.1965 31.7915 61.2048C31.1417 61.2424 30.7818 60.4747 30.3339 60.0025C28.7186 58.2996 26.9988 56.4866 25.4176 54.8198C25.057 54.4396 24.8767 53.8694 25.2373 53.2991C25.5979 52.7288 26.3192 52.7288 26.8602 53.2991C28.483 55.0099 30.1058 56.7207 31.7287 58.4315C32.0893 58.8116 32.2696 58.8116 32.6302 58.6215C40.5641 55.7702 47.5964 51.2081 53.5468 45.1253C60.5791 37.902 65.2673 29.3481 67.972 19.6536C69.4146 14.3311 70.1358 8.8186 70.1358 3.11597Z" fill="#1B6AE0"/>
<path d="M60.0414 24.4059C60.0414 30.8689 55.1729 36.0012 49.0422 36.0012C42.9115 36.0012 38.043 30.8689 38.043 24.4059C38.043 18.133 42.9115 12.8105 48.8619 12.8105C55.1729 12.8105 60.0414 17.9429 60.0414 24.4059ZM57.8777 24.596C57.8777 19.2735 53.9107 15.0916 48.8619 15.0916C43.8131 15.0916 39.8461 19.2735 39.8461 24.596C39.8461 29.9184 43.8131 34.1004 48.8619 34.1004C53.9107 33.9103 57.8777 29.7283 57.8777 24.596Z" fill="#1B6AE0"/>
<path d="M31.7548 68.6339C32.0738 70.7315 34.4591 71.8068 36.0531 70.4065C39.6594 66.9849 41.6429 62.803 42.5444 57.8607C42.7247 57.1004 43.0854 56.7202 43.6263 56.7202C44.013 56.7202 44.2961 56.8842 44.4755 57.1534C44.8222 57.6739 44.6534 58.3608 44.5358 58.9751C44.3993 59.6879 44.2362 60.4355 43.987 61.0922C42.0035 67.5552 38.3972 72.3074 32.8074 75.5389C31.5452 76.2992 31.0043 75.9191 30.8239 74.5884C30.1187 70.6852 29.4135 66.6003 28.7082 62.689C28.6763 62.5118 28.6602 62.2825 28.6602 62.1025C28.6602 61.6549 28.7267 61.1877 29.1377 61.0104C29.3049 60.9382 29.5064 60.9021 29.742 60.9021C30.5613 60.9021 30.7024 62.0743 30.843 62.8814C30.9501 63.4959 31.0749 64.1292 31.2441 64.8092C31.3212 65.1192 31.3745 65.4348 31.4013 65.7531C31.4833 66.7298 31.6103 67.6837 31.7548 68.6339Z" fill="#1B6AE0"/>
<path d="M2.78435 41.0492C2.86824 41.3838 3.15215 41.7826 3.49175 41.8429C4.30017 41.9864 5.08341 42.1299 5.76391 42.2733C8.2365 42.8319 10.7091 43.2081 13.0122 43.7592C13.1084 43.7822 13.2144 43.794 13.3133 43.794C13.4535 43.794 13.5881 43.8125 13.71 43.8817C14.1396 44.1258 14.3967 44.6252 14.2387 45.1247C14.0584 45.6949 13.6978 46.0751 12.9765 45.885C11.534 45.5048 9.91117 45.3147 8.46864 44.9346C6.18096 44.378 3.89329 44.0025 1.438 43.4547C1.3171 43.4278 1.19503 43.4139 1.07116 43.4139C0.955311 43.4139 0.837347 43.4043 0.726315 43.3713C-0.0276155 43.1469 -0.162698 42.5908 0.174139 41.7031C1.25603 39.6121 2.51824 37.5212 4.14108 35.8104C7.55104 32.0264 11.6755 29.9373 16.3367 28.7932C16.3804 28.7825 16.4354 28.7776 16.4803 28.7766C16.7196 28.7712 16.9194 28.5138 17.1568 28.5446C17.5483 28.5954 17.8894 28.9173 18.0254 29.3474C18.2057 29.9177 17.845 30.4879 17.1238 30.678C16.0419 31.0582 14.7797 31.2483 13.6978 31.6284C9.07015 33.3171 5.49664 36.3023 2.80382 40.5839C2.73675 40.6905 2.75371 40.927 2.78435 41.0492Z" fill="#1B6AE0"/>
<path d="M15.7756 59.4895C15.3616 59.0552 15.628 58.296 16.0409 57.8607C19.4669 54.249 22.7126 50.8274 26.1386 47.2158C27.4008 45.8852 28.4827 44.7446 29.7449 43.414C29.9731 43.1735 30.2012 43.0344 30.4294 42.9825C31.0773 42.8352 31.7194 43.5067 31.5958 44.1596C31.5458 44.4234 31.4141 44.6957 31.1874 44.9347C27.2205 49.1167 23.2536 53.4887 19.1063 57.6706C18.6817 58.1182 18.257 58.683 17.7452 59.1811C17.4636 59.455 17.1923 59.7967 16.8069 59.873C16.6817 59.8978 16.5565 59.8873 16.4313 59.8494C16.286 59.8054 16.1457 59.7427 16.0128 59.6695C15.9194 59.618 15.8408 59.558 15.7756 59.4895Z" fill="#1B6AE0"/>
<path d="M10.1384 63.9974C10.5664 63.7218 11.1245 63.6488 11.4849 64.0083C11.5745 64.0978 11.6515 64.2007 11.7097 64.3233C11.8022 64.5184 11.7998 64.7135 11.7511 64.9085C11.6551 65.2935 11.4191 65.5599 11.1687 65.8678C10.9184 66.1757 10.6687 66.5607 10.397 66.8499C8.58846 68.7746 6.77198 70.8152 4.84235 72.75C4.37754 73.216 3.89308 73.8277 3.23486 73.8277C2.87423 73.8277 2.5136 73.6376 2.33328 73.2574C2.15297 72.6872 2.15297 72.307 2.5136 71.9268C3.95612 70.4061 5.39864 68.8854 6.84117 67.3647C7.86417 66.2863 8.72596 65.3778 9.73142 64.3178C9.84732 64.1957 9.99683 64.0886 10.1384 63.9974Z" fill="#1B6AE0"/>
<path d="M8.97999 55.9209C9.18448 55.7454 9.34112 55.7486 9.59548 55.8376C10.0011 55.9794 10.2834 56.3248 10.364 56.6808C10.4568 57.0912 10.2153 57.5054 9.9441 57.8272C9.93461 57.8385 9.92457 57.8497 9.91389 57.861C7.56979 60.3321 5.22569 62.8033 2.88159 65.2744C2.76168 65.4008 2.63152 65.5186 2.48156 65.6073C2.29795 65.7159 2.11719 65.7934 1.94647 65.8169C1.40416 65.8917 0.989442 65.2544 0.988284 64.707C0.987679 64.4209 1.07784 64.1345 1.25875 63.9438C3.06191 62.0429 4.86506 60.142 6.66821 58.2412C7.28623 57.5896 7.77187 57.0777 8.35199 56.5857C8.54631 56.4209 8.78663 56.0868 8.97999 55.9209Z" fill="#1B6AE0"/>
<path d="M19.284 66.4148C19.284 66.9764 18.7263 67.3829 18.3398 67.7903C16.0347 70.2203 13.8593 72.5136 11.5304 74.9687C10.9895 75.539 10.4485 75.539 9.90759 74.9687C9.7478 74.8003 9.65881 74.5572 9.6563 74.3057C9.64968 73.6412 10.3183 73.2052 10.7756 72.7231C13.0422 70.3337 15.1871 68.0725 17.4808 65.6545C17.6545 65.4714 17.8281 65.3324 18.0219 65.2587C18.4806 65.0843 19.0824 65.3336 19.2188 65.8051C19.2622 65.9555 19.284 66.1508 19.284 66.4148Z" fill="#1B6AE0"/>
</svg>
